<?xml version="1.0" standalone="no"?>
<!DOCTYPE svg PUBLIC "-//W3C//DTD SVG 20010904//EN"
 "http://www.w3.org/TR/2001/REC-SVG-20010904/DTD/svg10.dtd">
<svg version="1.0" xmlns="http://www.w3.org/2000/svg"
 width="500.000000pt" height="143.000000pt" viewBox="0 0 500.000000 143.000000"
 preserveAspectRatio="xMidYMid meet">

<g transform="translate(0.000000,143.000000) scale(0.100000,-0.100000)"
fill="#000000" stroke="none">
<path d="M0 715 l0 -715 2500 0 2500 0 0 715 0 715 -2500 0 -2500 0 0 -715z
m981 185 l107 -215 57 120 c31 66 77 164 102 218 l46 97 54 0 53 0 0 -225 0
-225 -55 0 -55 0 -1 93 0 92 -77 -152 -77 -153 -47 0 -47 0 -78 150 -78 149
-3 -159 -2 -160 -55 0 c-46 0 -55 3 -55 18 -1 27 -1 535 -1 555 1 15 9 18 54
15 l52 -3 106 -215z m1379 166 l0 -54 -102 -4 c-168 -6 -223 -52 -223 -183 0
-57 5 -77 24 -109 28 -45 87 -75 149 -76 l42 0 0 70 0 70 -55 0 -55 0 0 60 0
61 110 -3 c61 -2 110 -6 110 -10 0 -5 0 -87 0 -184 l0 -177 -112 6 c-130 6
-189 23 -246 73 -60 51 -85 124 -80 234 10 192 117 273 371 279 l67 1 0 -54z
m270 -138 l135 -193 3 193 2 192 55 0 55 0 0 -295 0 -295 -55 0 -54 0 -133
191 -133 191 -3 -121 -3 -121 -54 0 -55 0 0 225 0 225 53 0 52 0 135 -192z
m550 137 l0 -55 -80 0 -80 0 0 -65 0 -64 118 -3 117 -3 3 -29 c2 -15 1 -39 -2
-52 -6 -24 -9 -24 -121 -24 l-115 0 0 -65 0 -65 80 0 80 0 0 -55 0 -55 -135 0
-135 0 0 33 c-1 91 -1 487 0 520 l0 37 135 0 135 0 0 -55z m445 5 l0 -45 -177
-3 -178 -2 0 43 c0 24 3 47 7 51 4 3 84 5 177 4 l171 -3 0 -45z m412 24 c61
-24 102 -65 134 -130 60 -121 39 -265 -51 -355 -125 -125 -347 -97 -434 54
-81 140 -38 338 90 413 74 44 182 51 261 18z m-2260 -255 c57 -145 106 -274
109 -287 6 -22 5 -23 -51 -20 l-58 3 -55 158 c-30 87 -58 155 -62 150 -4 -4
-31 -77 -60 -160 l-53 -153 -58 0 -59 0 19 48 c10 26 60 156 112 290 52 133
98 241 103 239 5 -2 56 -122 113 -268z m1723 49 c0 -5 0 -87 0 -183 l0 -175
-55 0 -55 0 0 185 0 186 55 -3 c30 -2 55 -6 55 -10z m-149 -518 c31 0 22 -54
-8 -58 -21 -3 -23 0 -22 45 1 26 3 40 6 31 2 -10 13 -18 24 -18z m155 -13 l11
-32 12 38 c16 47 31 39 30 -16 l-2 -42 -6 35 -6 35 -13 -35 -13 -35 -14 25
c-14 25 -14 25 -15 3 0 -13 -4 -23 -10 -23 -11 0 -14 73 -3 83 9 10 16 1 29
-36z m112 36 c-16 -2 -28 -11 -28 -19 0 -8 11 -15 28 -15 l27 -2 -27 -4 c-16
-2 -28 -10 -28 -18 0 -8 12 -16 28 -18 25 -4 25 -4 -5 -6 -33 -1 -33 0 -33 44
0 44 0 45 33 44 30 -2 30 -2 5 -6z m100 -13 c5 -13 3 -13 -12 -1 -15 12 -19
12 -33 -1 -20 -20 -8 -58 18 -58 10 0 19 5 19 10 0 6 5 10 11 10 8 0 8 -5 -1
-15 -25 -30 -70 -11 -70 30 0 12 6 27 12 33 16 16 50 11 56 -8z m91 -27 c-1
-27 -4 -38 -6 -25 -3 15 -11 22 -28 22 -17 0 -25 -7 -28 -22 -2 -13 -4 -3 -4
22 -1 25 1 37 4 28 7 -26 53 -24 53 2 0 11 2 20 5 20 3 0 4 -21 4 -47z m151
-18 c0 -5 -9 1 -19 15 l-19 24 -5 -34 c-3 -28 -4 -24 -5 15 l-1 50 24 -30 c14
-16 25 -34 25 -40z m47 -2 c-2 -16 -4 -5 -4 22 0 28 2 40 4 28 2 -13 2 -35 0
-50z m84 50 c13 -16 12 -17 -3 -4 -24 18 -48 7 -48 -24 0 -31 24 -43 47 -24
14 12 16 12 11 -1 -3 -9 -17 -15 -34 -15 -24 0 -30 4 -32 28 -6 49 32 74 59
40z m68 -5 c5 -13 11 -34 15 -48 6 -21 5 -22 -4 -7 -6 9 -17 17 -25 17 -8 0
-19 -8 -24 -17 -6 -10 -11 -15 -11 -11 0 11 31 88 36 88 3 0 8 -10 13 -22z
m-889 -29 c0 -36 -2 -40 -22 -37 -32 4 -39 58 -9 58 12 0 21 5 21 10 0 6 2 10
5 10 3 0 5 -18 5 -41z m613 4 c17 -43 14 -55 -8 -27 -15 19 -15 19 -30 0 -8
-11 -17 -18 -19 -15 -6 6 25 79 34 79 4 0 15 -17 23 -37z m93 -41 c-11 -10
-13 3 -7 43 l6 40 3 -39 c2 -21 1 -41 -2 -44z m-1098 30 c2 -14 -3 -24 -15
-29 -10 -4 -21 -11 -25 -17 -4 -6 -8 8 -8 32 0 39 2 43 23 40 14 -2 23 -11 25
-26z m66 13 c8 -23 -4 -45 -25 -45 -11 0 -22 7 -25 15 -9 23 3 45 25 45 10 0
21 -7 25 -15z m23 -7 c-3 -8 -6 -5 -6 6 -1 11 2 17 5 13 3 -3 4 -12 1 -19z
m43 0 c6 -17 9 -18 9 -6 1 9 5 19 11 23 5 3 5 -7 -1 -25 -11 -31 -29 -32 -30
-2 0 12 -3 9 -10 -7 -5 -13 -12 -22 -15 -19 -5 5 16 58 23 58 2 0 8 -10 13
-22z m88 5 c2 -8 -5 -13 -17 -13 -12 0 -21 -5 -21 -11 0 -7 9 -9 21 -6 16 4
19 3 11 -5 -17 -17 -42 -1 -42 27 0 21 4 26 22 23 12 -2 23 -9 26 -15z m34 5
c-5 -7 -12 -22 -15 -33 -3 -13 -5 -9 -6 13 -1 23 3 32 15 32 12 0 14 -3 6 -12z
m72 -3 c4 -11 -1 -15 -19 -15 -14 0 -25 -5 -25 -11 0 -6 9 -9 20 -6 11 3 20 1
20 -4 0 -15 -40 -10 -46 6 -9 23 3 45 25 45 10 0 21 -7 25 -15z m195 -7 l9
-23 10 25 c15 35 15 13 0 -27 -14 -38 -23 -42 -24 -10 0 12 -4 30 -8 40 -5 9
-5 17 -2 17 4 0 11 -10 15 -22z"/>
<path d="M3855 998 c-97 -53 -129 -181 -72 -283 30 -52 78 -79 142 -79 87 0
140 45 166 139 22 80 -21 184 -92 220 -33 17 -115 19 -144 3z m105 -138 c24
-24 26 -53 4 -74 -32 -33 -94 -10 -94 35 0 23 34 59 55 59 8 0 24 -9 35 -20z"/>
<path d="M3330 340 c0 -11 7 -20 15 -20 8 0 15 9 15 20 0 11 -7 20 -15 20 -8
0 -15 -9 -15 -20z"/>
<path d="M4136 365 c-3 -8 -1 -15 4 -15 6 0 10 7 10 15 0 8 -2 15 -4 15 -2 0
-6 -7 -10 -15z"/>
<path d="M3230 340 c0 -11 7 -20 15 -20 8 0 15 9 15 20 0 11 -7 20 -15 20 -8
0 -15 -9 -15 -20z"/>
<path d="M3850 360 c0 -5 5 -10 10 -10 6 0 10 5 10 10 0 6 -4 10 -10 10 -5 0
-10 -4 -10 -10z"/>
<path d="M2840 339 c0 -24 23 -21 28 4 2 10 -3 17 -12 17 -10 0 -16 -9 -16
-21z"/>
<path d="M2902 343 c2 -10 10 -18 18 -18 22 0 18 29 -3 33 -14 3 -18 -1 -15
-15z"/>
<path d="M3068 353 c7 -3 16 -2 19 1 4 3 -2 6 -13 5 -11 0 -14 -3 -6 -6z"/>
<path d="M3168 353 c7 -3 16 -2 19 1 4 3 -2 6 -13 5 -11 0 -14 -3 -6 -6z"/>
</g>
</svg>
