<?xml version="1.0" standalone="no"?>
<!DOCTYPE svg PUBLIC "-//W3C//DTD SVG 20010904//EN"
 "http://www.w3.org/TR/2001/REC-SVG-20010904/DTD/svg10.dtd">
<svg version="1.0" xmlns="http://www.w3.org/2000/svg"
 width="500.000000pt" height="185.000000pt" viewBox="0 0 500.000000 185.000000"
 preserveAspectRatio="xMidYMid meet">

<g transform="translate(0.000000,185.000000) scale(0.100000,-0.100000)"
fill="#000000" stroke="none">
<path d="M765 1198 c-3 -7 -4 -139 -3 -293 l3 -280 57 -3 57 -3 3 158 3 158
75 -145 76 -145 51 -3 52 -3 75 148 75 148 0 -87 1 -88 55 0 55 0 0 225 0 226
-55 -3 -56 -3 -97 -207 c-53 -114 -100 -207 -104 -205 -3 1 -53 94 -110 207
l-103 205 -53 3 c-36 2 -54 -1 -57 -10z"/>
<path d="M2162 1199 c-109 -19 -184 -73 -222 -161 -19 -44 -22 -65 -18 -142 5
-97 19 -138 67 -189 56 -61 156 -90 291 -85 l85 3 3 183 2 182 -115 0 -115 0
0 -60 0 -60 55 0 55 0 0 -70 0 -70 -31 0 c-53 0 -106 21 -138 54 -40 41 -58
122 -42 183 26 95 97 133 248 133 l84 0 -3 53 -3 52 -75 2 c-41 0 -99 -3 -128
-8z"/>
<path d="M2389 1183 c0 -16 -2 -117 -5 -225 l-5 -198 60 0 60 0 3 118 3 117
130 -185 131 -185 57 -3 57 -3 0 296 0 295 -55 0 -55 0 -2 -190 -3 -191 -134
191 -135 190 -53 0 c-51 0 -53 -1 -54 -27z"/>
<path d="M2907 1203 c-4 -3 -7 -136 -7 -295 l0 -288 140 0 140 0 0 55 0 55
-80 0 -80 0 0 65 0 64 118 3 117 3 0 50 0 50 -117 3 -118 3 0 64 0 65 80 0 80
0 0 55 0 55 -133 0 c-74 0 -137 -3 -140 -7z"/>
<path d="M3277 1204 c-4 -4 -7 -26 -7 -49 l0 -42 68 -6 c85 -9 240 -9 270 -1
20 6 23 12 20 53 l-3 46 -171 3 c-93 1 -173 -1 -177 -4z"/>
<path d="M3834 1192 c-70 -25 -99 -45 -134 -94 -117 -161 -48 -404 133 -464
71 -24 171 -15 230 19 94 55 141 142 140 257 0 86 -19 144 -63 200 -64 81
-205 118 -306 82z m184 -119 c46 -34 74 -95 73 -163 0 -125 -89 -203 -204
-178 -55 12 -83 34 -107 82 -49 102 -10 237 80 275 38 16 127 7 158 -16z"/>
<path d="M3892 954 c-41 -29 -19 -94 33 -94 52 0 74 65 33 94 -12 9 -27 16
-33 16 -6 0 -21 -7 -33 -16z"/>
<path d="M1546 923 c-60 -153 -110 -284 -113 -290 -4 -10 11 -13 54 -13 l60 0
58 161 58 161 57 -158 58 -159 56 -3 c41 -2 56 0 56 10 -1 24 -216 562 -226
565 -6 2 -59 -121 -118 -274z"/>
<path d="M3396 992 c-3 -3 -6 -88 -6 -189 l0 -184 58 3 57 3 0 185 0 185 -52
2 c-28 0 -54 -1 -57 -5z"/>
<path d="M3260 475 c0 -8 -3 -14 -7 -14 -26 4 -34 -3 -31 -28 2 -20 9 -29 26
-31 20 -3 22 1 22 42 0 25 -2 46 -5 46 -3 0 -5 -7 -5 -15z m0 -45 c0 -11 -7
-20 -15 -20 -8 0 -15 9 -15 20 0 11 7 20 15 20 8 0 15 -9 15 -20z"/>
<path d="M3321 447 c-1 -45 1 -48 22 -45 30 4 39 58 8 58 -11 0 -22 8 -24 18
-3 9 -5 -5 -6 -31z m39 -17 c0 -11 -7 -20 -15 -20 -8 0 -15 9 -15 20 0 11 7
20 15 20 8 0 15 -9 15 -20z"/>
<path d="M3477 483 c-11 -10 -8 -83 3 -83 6 0 10 10 11 23 0 21 1 21 10 -3 10
-24 11 -24 25 -6 12 18 19 15 15 -6 0 -5 4 -8 9 -8 6 0 10 20 10 45 0 55 -14
58 -31 8 l-12 -38 -11 32 c-13 37 -20 46 -29 36z"/>
<path d="M3580 445 c0 -44 0 -45 33 -44 30 2 30 2 5 6 -16 2 -28 10 -28 18 0
8 12 16 28 18 l27 4 -27 2 c-16 0 -28 5 -28 9 0 5 12 13 28 19 l27 11 -32 1
c-33 1 -33 0 -33 -44z"/>
<path d="M3662 478 c-6 -6 -12 -21 -12 -33 0 -41 45 -60 70 -30 9 10 9 15 1
15 -6 0 -11 -4 -11 -10 0 -16 -37 -11 -44 6 -6 16 9 54 22 54 5 0 14 -6 21
-12 11 -11 13 -10 9 2 -6 19 -40 24 -56 8z"/>
<path d="M3741 445 c0 -40 2 -45 9 -27 5 12 18 22 29 22 12 0 21 -8 24 -22 2
-13 4 0 4 27 0 28 -2 40 -4 28 -3 -15 -12 -23 -24 -23 -11 0 -24 10 -29 23 -7
17 -9 12 -9 -28z"/>
<path d="M3837 445 c-9 -25 -12 -45 -6 -45 5 0 9 5 9 10 0 6 9 10 20 10 11 0
20 -4 20 -10 0 -5 4 -10 9 -10 6 0 3 20 -6 45 -8 25 -19 45 -23 45 -4 0 -15
-20 -23 -45z m28 5 c3 -5 1 -10 -4 -10 -6 0 -11 5 -11 10 0 6 2 10 4 10 3 0 8
-4 11 -10z"/>
<path d="M3912 445 c1 -46 1 -47 7 -15 l7 35 17 -32 c25 -46 37 -41 36 15 -1
29 -4 36 -6 20 -2 -16 -7 -28 -11 -28 -3 0 -16 12 -29 28 l-22 27 1 -50z"/>
<path d="M4003 445 c0 -27 2 -38 4 -22 2 15 2 37 0 50 -2 12 -4 0 -4 -28z"/>
<path d="M4036 474 c-19 -19 -20 -35 -3 -58 15 -21 58 -18 65 4 5 13 3 13 -11
1 -23 -18 -47 -7 -47 23 0 27 26 42 46 25 9 -7 14 -8 14 -1 0 9 -23 22 -40 22
-5 0 -16 -7 -24 -16z"/>
<path d="M4125 454 c-20 -48 -19 -57 4 -42 15 9 23 9 35 -1 9 -8 16 -9 16 -3
0 13 -29 82 -35 82 -3 0 -12 -16 -20 -36z"/>
<path d="M2838 462 c-13 -2 -18 -13 -18 -37 0 -19 5 -37 10 -40 6 -3 10 -2 10
3 0 5 9 12 20 15 39 10 17 68 -22 59z m30 -29 c-5 -25 -28 -28 -28 -4 0 12 6
21 16 21 9 0 14 -7 12 -17z"/>
<path d="M3055 453 c-9 -8 -14 -22 -11 -30 3 -8 6 -17 6 -19 0 -8 39 -4 44 5
4 5 -3 7 -14 4 -11 -3 -20 0 -20 6 0 6 9 11 20 11 11 0 20 6 20 14 0 21 -28
27 -45 9z m32 -9 c-3 -3 -12 -4 -19 -1 -8 3 -5 6 6 6 11 1 17 -2 13 -5z"/>
<path d="M2894 445 c-9 -23 3 -45 25 -45 20 0 37 32 26 50 -9 15 -45 12 -51
-5z m36 -15 c0 -11 -4 -20 -9 -20 -14 0 -23 18 -16 30 10 17 25 11 25 -10z"/>
<path d="M2961 448 c-1 -23 9 -48 20 -48 5 0 9 8 9 17 0 15 2 14 14 -3 12 -16
15 -16 19 -4 3 8 8 23 11 33 3 9 1 17 -4 17 -5 0 -11 -8 -13 -17 -4 -17 -5
-17 -6 0 -1 22 -20 22 -28 0 -6 -15 -7 -15 -14 3 -6 15 -8 16 -8 2z"/>
<path d="M3111 428 c1 -22 3 -26 6 -13 3 11 10 26 15 33 8 9 6 12 -6 12 -12 0
-16 -9 -15 -32z"/>
<path d="M3154 446 c-3 -9 -4 -23 0 -31 6 -17 42 -20 52 -4 4 7 0 9 -14 5 -11
-4 -23 -2 -27 4 -4 6 4 10 20 10 17 0 25 5 23 13 -7 18 -47 21 -54 3z"/>
<path d="M3386 439 c4 -13 8 -34 7 -46 -1 -32 6 -28 23 12 18 44 18 68 -1 35
-10 -18 -14 -20 -15 -8 0 9 -5 20 -11 24 -8 4 -9 -1 -3 -17z"/>
</g>
</svg>
