<svg version="1.1" id="Layer_1" xmlns="http://www.w3.org/2000/svg" xmlns:xlink="http://www.w3.org/1999/xlink" x="0px" y="0px"
	 width="100%" viewBox="0 0 367 133" enable-background="new 0 0 367 133" xml:space="preserve">
<path fill="#020202" opacity="1.000000" stroke="none" 
	d="
M238.000000,134.000000 
	C158.666672,134.000000 79.833351,134.000000 1.000021,134.000000 
	C1.000014,89.666679 1.000014,45.333363 1.000007,1.000033 
	C123.333305,1.000022 245.666611,1.000022 367.999939,1.000011 
	C367.999939,45.333298 367.999939,89.666595 367.999969,133.999939 
	C324.833344,134.000000 281.666656,134.000000 238.000000,134.000000 
M281.987061,87.758774 
	C284.153961,87.905113 286.320862,88.051453 288.443665,88.194817 
	C288.443665,82.737526 288.443665,78.004807 288.443665,73.000076 
	C286.173248,73.000076 284.086670,73.000076 281.330719,72.967499 
	C280.884247,72.979980 280.437775,72.992462 279.080078,72.798576 
	C276.422241,72.808754 273.760193,72.725273 271.107361,72.845749 
	C260.992798,73.305092 256.683807,76.612129 253.216980,86.232498 
	C252.973602,86.907829 251.765472,87.235504 250.164856,87.294884 
	C245.935059,87.294884 241.705261,87.294884 237.482574,87.294884 
	C237.482574,84.218536 237.482574,81.966385 237.482574,79.259361 
	C240.784790,79.259361 243.858719,79.259361 247.127075,79.259361 
	C247.127075,76.888672 247.127075,74.978004 247.127075,73.016563 
	C241.583359,73.016563 236.298889,73.016563 230.326691,72.935135 
	C229.867065,72.977417 229.407440,73.019707 228.047409,72.809250 
	C221.435318,72.809250 214.823212,72.809250 208.175171,72.809250 
	C208.175171,75.023422 208.175171,76.761414 208.175171,78.700531 
	C215.229309,78.700531 222.017426,78.700531 229.592972,78.754883 
	C229.845978,78.827110 230.098969,78.899345 230.339508,79.911865 
	C230.339508,89.328293 230.339508,98.744728 230.339508,108.332314 
	C236.299530,108.332314 241.573166,108.332314 247.115356,108.332314 
	C247.115356,106.211662 247.115356,104.290764 247.115356,102.101059 
	C243.889587,101.939697 240.662369,101.778267 237.482178,101.619186 
	C237.482178,98.878815 237.482178,96.608376 237.482178,94.114388 
	C242.138733,93.885437 246.568893,93.667610 251.690918,93.377098 
	C252.364288,94.371635 253.340500,95.278488 253.658234,96.375984 
	C254.987198,100.966415 257.488800,104.842583 262.099396,106.096512 
	C267.835297,107.656487 273.826996,108.275833 279.881561,109.331619 
	C279.881561,105.980888 279.881561,104.082802 279.881561,102.216087 
	C262.874023,100.942566 259.248749,98.536713 260.032990,89.224724 
	C260.602570,82.462158 265.250671,79.009949 273.119812,79.705673 
	C273.319641,82.058945 273.523224,84.456139 273.736298,86.965485 
	C276.008423,86.965485 277.975250,86.965485 280.526276,87.035439 
	C280.915680,87.055305 281.305054,87.075165 281.987061,87.758774 
M115.410355,50.654308 
	C115.909996,50.789787 116.409630,50.925266 117.028824,51.797939 
	C118.676071,60.034565 124.351761,64.008018 132.090866,64.745895 
	C138.637100,65.370049 145.290070,64.874527 152.005569,64.874527 
	C152.177612,62.853298 152.342133,60.920536 152.511108,58.935257 
	C156.989288,58.935257 161.224686,58.935257 165.601974,58.935257 
	C165.770355,61.145039 165.916473,63.062653 166.048126,64.790329 
	C168.440948,64.790329 170.482071,64.790329 172.434113,64.790329 
	C172.434113,52.839062 172.434113,41.288364 172.434113,29.581171 
	C170.159592,29.581171 168.238098,29.581171 165.781403,29.581171 
	C165.781403,37.030445 165.781403,44.253799 165.781403,51.966522 
	C158.695450,51.966522 152.131744,51.966522 145.468094,51.966522 
	C145.305283,54.559254 145.173416,56.659264 145.049240,58.636589 
	C141.497452,58.636589 138.191284,58.791801 134.904434,58.605827 
	C126.876747,58.151608 123.107178,53.782261 123.763451,45.924889 
	C124.330368,39.137466 128.860535,35.784298 136.859222,36.413342 
	C136.996185,38.799644 137.135117,41.220074 137.293945,43.987183 
	C139.419739,43.863575 141.203064,43.759884 143.815506,43.811165 
	C146.436279,44.334225 149.057053,44.857281 151.966431,45.437939 
	C151.966431,39.672546 151.966431,34.670620 151.966431,29.293444 
	C148.784073,29.462524 145.900589,29.615728 142.147034,29.392010 
	C138.683395,29.548210 135.188889,29.465178 131.762115,29.907198 
	C122.854324,31.056213 118.709595,35.074764 116.214073,43.996677 
	C115.775841,44.029900 115.337601,44.063126 113.985229,44.003986 
	C109.736862,44.003986 105.488503,44.003986 101.371216,44.003986 
	C101.371216,40.932236 101.371216,38.656551 101.371216,35.968597 
	C104.693695,35.968597 107.775307,35.968597 110.865448,35.968597 
	C110.865448,33.513840 110.865448,31.486490 110.865448,29.667181 
	C105.170746,29.667181 99.902405,29.667181 94.462479,29.667181 
	C94.462479,41.558411 94.462479,53.127525 94.462479,64.939209 
	C100.102119,64.939209 105.500404,64.939209 111.044502,64.939209 
	C111.044502,62.809845 111.044502,60.905994 111.044502,58.551853 
	C107.722168,58.551853 104.631866,58.551853 101.366531,58.551853 
	C101.366531,55.686874 101.366531,53.277725 101.366531,50.307953 
	C106.078773,50.307953 110.551003,50.307953 115.410355,50.654308 
M78.700043,44.099815 
	C76.960899,47.720257 75.221756,51.340698 73.130684,55.693771 
	C69.294098,47.895763 65.524910,41.051483 62.542267,33.880074 
	C60.611916,29.238768 57.852776,28.581312 53.608200,29.814911 
	C53.608200,41.658493 53.608200,53.244888 53.608200,64.843788 
	C55.929588,64.843788 57.984005,64.843788 60.689625,64.843788 
	C60.689625,58.899288 60.689625,53.287247 60.689625,47.675205 
	C63.573017,51.199890 65.345108,54.907825 67.385742,58.461559 
	C68.750275,60.837872 68.972481,64.124397 73.304840,64.046593 
	C77.679604,63.968025 77.641182,60.508602 79.009277,58.177265 
	C80.981781,54.815945 82.571373,51.229908 84.324364,47.739765 
	C84.601128,47.807606 84.877899,47.875446 85.154663,47.943291 
	C85.352943,50.771973 85.551216,53.600655 85.745255,56.368847 
	C88.058563,56.368847 89.973434,56.368847 91.773788,56.368847 
	C91.773788,47.179066 91.773788,38.304375 91.773788,29.750216 
	C86.876419,28.186886 84.570496,30.289387 83.115921,34.323330 
	C81.991699,37.441074 80.376549,40.381794 78.700043,44.099815 
M233.777527,31.123257 
	C231.677063,30.385210 229.576599,29.647161 226.758759,28.657042 
	C226.758759,37.263203 226.758759,44.334385 226.758759,52.881313 
	C221.617996,45.552635 217.064468,39.507374 213.026321,33.135483 
	C210.636856,29.365078 207.846237,28.509766 203.780029,29.894485 
	C203.780029,38.751797 203.780029,47.504456 203.780029,56.361748 
	C206.061813,56.361748 208.089630,56.361748 210.549927,56.361748 
	C210.549927,51.778919 210.549927,47.553688 210.549927,41.782360 
	C215.665878,49.100609 220.177826,54.993675 224.042694,61.284298 
	C226.543381,65.354538 229.549347,65.764473 233.790588,64.696922 
	C233.790588,53.623337 233.790588,42.821156 233.777527,31.123257 
M251.120697,49.185181 
	C253.412857,62.084232 263.284393,67.683716 278.060822,64.521812 
	C278.060822,62.603977 278.060822,60.729744 278.060822,58.896652 
	C261.376495,57.948929 257.412567,55.407841 258.109253,46.330879 
	C258.658264,39.177414 263.522400,35.519917 271.388092,36.546638 
	C271.532288,38.898716 271.679321,41.297127 271.825836,43.686985 
	C274.190094,43.686985 276.118195,43.686985 278.132874,43.686985 
	C278.132874,38.860626 278.132874,34.288223 278.132874,29.757908 
	C259.948730,27.658207 251.374664,33.625584 251.120697,49.185181 
M301.189789,101.980995 
	C301.631744,103.966469 302.073700,105.951942 302.588776,108.265846 
	C304.492615,108.265846 306.557770,108.265846 308.788513,108.265846 
	C308.788513,96.389854 308.788513,84.807419 308.788513,73.081482 
	C306.500427,73.081482 304.451202,73.081482 302.008484,73.081482 
	C302.008484,80.472481 302.008484,87.562027 302.008484,95.153297 
	C295.052612,95.153297 288.482086,95.153297 282.186707,95.153297 
	C282.186707,99.916245 282.186707,104.155273 282.186707,108.185493 
	C284.505280,108.185493 286.410675,108.185493 288.385040,108.185493 
	C288.577820,105.906776 288.738464,104.007935 288.915192,101.919281 
	C292.946350,101.919281 296.598846,101.919281 301.189789,101.980995 
M162.934357,95.532585 
	C163.635498,93.644257 164.336639,91.755920 165.456802,88.739067 
	C167.555496,94.573181 169.535461,99.008881 170.714951,103.648094 
	C171.964417,108.562569 174.614487,109.608429 179.504105,107.939606 
	C174.928177,96.226654 170.412552,84.668030 165.373199,71.768829 
	C160.351761,84.778748 155.903198,96.304459 151.381973,108.018410 
	C156.252090,109.394203 159.116211,108.661118 160.086411,103.809647 
	C160.602905,101.226883 161.791901,98.778595 162.934357,95.532585 
M189.197159,48.187321 
	C190.601624,52.096310 192.382523,55.917866 193.315796,59.936291 
	C194.497437,65.024086 197.239792,66.306229 202.214600,64.602806 
	C197.688034,53.008114 193.170395,41.436302 188.137817,28.545509 
	C183.100266,41.558117 178.631638,53.101124 174.033768,64.977951 
	C176.624466,64.977951 178.750870,64.977951 181.155243,64.977951 
	C183.039658,59.679729 184.875488,54.352013 186.875946,49.086864 
	C187.151245,48.362259 188.243759,47.948162 189.197159,48.187321 
M300.716705,64.139343 
	C302.993683,64.594482 305.270660,65.049614 308.376404,65.670410 
	C303.435455,53.012039 298.902344,41.398525 293.877167,28.524292 
	C288.869659,41.496311 284.400604,53.073414 279.863678,64.826340 
	C286.845459,65.417915 286.841034,65.416367 288.865540,59.617279 
	C290.390350,55.249447 291.928375,50.886230 293.925934,45.194935 
	C296.405090,52.230247 298.374268,57.818348 300.716705,64.139343 
M244.161011,29.340618 
	C242.589371,29.439793 241.017731,29.538965 239.205963,29.653292 
	C239.205963,39.680401 239.205963,49.115749 239.205963,58.577114 
	C237.749054,58.983189 236.543671,59.319157 235.450119,59.623955 
	C235.450119,61.505428 235.450119,63.107658 235.450119,64.944855 
	C240.425949,64.944855 245.165741,64.944855 249.847702,64.944855 
	C251.187714,61.277935 250.544571,58.781986 246.294479,58.438019 
	C246.294479,49.977173 246.357086,41.835098 246.236084,33.695759 
	C246.214600,32.251045 245.429413,30.817688 244.161011,29.340618 
M191.800446,73.860260 
	C189.712555,73.419144 187.624664,72.978027 185.003235,72.424194 
	C185.003235,82.761124 185.003235,92.197708 185.003235,101.861526 
	C179.607758,102.086952 180.667023,105.198952 181.272247,108.361214 
	C186.284790,108.361214 190.894012,108.361214 196.262589,108.361214 
	C195.820908,106.176140 195.651642,102.882469 195.059967,102.804749 
	C190.768478,102.241096 191.974060,99.172775 191.944885,96.782860 
	C191.855438,89.456047 191.902176,82.127563 191.800446,73.860260 
M215.321442,107.742729 
	C217.460495,108.062569 219.599564,108.382416 221.712082,108.698296 
	C221.712082,100.559868 221.712082,93.223709 221.712082,85.933823 
	C219.429993,85.933823 217.498779,85.933823 215.170181,85.933823 
	C215.170181,93.074654 215.170181,99.973930 215.321442,107.742729 
z"/>
<path fill="#EFEFEF" opacity="1.000000" stroke="none" 
	d="
M142.986389,43.656189 
	C141.203064,43.759884 139.419739,43.863575 137.293945,43.987183 
	C137.135117,41.220074 136.996185,38.799644 136.859222,36.413342 
	C128.860535,35.784298 124.330368,39.137466 123.763451,45.924889 
	C123.107178,53.782261 126.876747,58.151608 134.904434,58.605827 
	C138.191284,58.791801 141.497452,58.636589 145.049240,58.636589 
	C145.173416,56.659264 145.305283,54.559254 145.468094,51.966522 
	C152.131744,51.966522 158.695450,51.966522 165.781403,51.966522 
	C165.781403,44.253799 165.781403,37.030445 165.781403,29.581171 
	C168.238098,29.581171 170.159592,29.581171 172.434113,29.581171 
	C172.434113,41.288364 172.434113,52.839062 172.434113,64.790329 
	C170.482071,64.790329 168.440948,64.790329 166.048126,64.790329 
	C165.916473,63.062653 165.770355,61.145039 165.601974,58.935257 
	C161.224686,58.935257 156.989288,58.935257 152.511108,58.935257 
	C152.342133,60.920536 152.177612,62.853298 152.005569,64.874527 
	C145.290070,64.874527 138.637100,65.370049 132.090866,64.745895 
	C124.351761,64.008018 118.676071,60.034565 117.047150,50.987938 
	C117.001877,48.091396 116.938263,46.004860 116.874657,43.918320 
	C118.709595,35.074764 122.854324,31.056213 131.762115,29.907198 
	C135.188889,29.465178 138.683395,29.548210 142.577271,30.058226 
	C143.000473,35.035023 142.993423,39.345608 142.986389,43.656189 
z"/>
<path fill="#F1F1F1" opacity="1.000000" stroke="none" 
	d="
M78.839844,43.750511 
	C80.376549,40.381794 81.991699,37.441074 83.115921,34.323330 
	C84.570496,30.289387 86.876419,28.186886 91.773788,29.750216 
	C91.773788,38.304375 91.773788,47.179066 91.773788,56.368847 
	C89.973434,56.368847 88.058563,56.368847 85.745255,56.368847 
	C85.551216,53.600655 85.352943,50.771973 85.154663,47.943291 
	C84.877899,47.875446 84.601128,47.807606 84.324364,47.739765 
	C82.571373,51.229908 80.981781,54.815945 79.009277,58.177265 
	C77.641182,60.508602 77.679604,63.968025 73.304840,64.046593 
	C68.972481,64.124397 68.750275,60.837872 67.385742,58.461559 
	C65.345108,54.907825 63.573017,51.199890 60.689625,47.675205 
	C60.689625,53.287247 60.689625,58.899288 60.689625,64.843788 
	C57.984005,64.843788 55.929588,64.843788 53.608200,64.843788 
	C53.608200,53.244888 53.608200,41.658493 53.608200,29.814911 
	C57.852776,28.581312 60.611916,29.238768 62.542267,33.880074 
	C65.524910,41.051483 69.294098,47.895763 73.130684,55.693771 
	C75.221756,51.340698 76.960899,47.720257 78.839844,43.750511 
z"/>
<path fill="#F3F3F3" opacity="1.000000" stroke="none" 
	d="
M233.784058,31.571115 
	C233.790588,42.821156 233.790588,53.623337 233.790588,64.696922 
	C229.549347,65.764473 226.543381,65.354538 224.042694,61.284298 
	C220.177826,54.993675 215.665878,49.100609 210.549927,41.782360 
	C210.549927,47.553688 210.549927,51.778919 210.549927,56.361748 
	C208.089630,56.361748 206.061813,56.361748 203.780029,56.361748 
	C203.780029,47.504456 203.780029,38.751797 203.780029,29.894485 
	C207.846237,28.509766 210.636856,29.365078 213.026321,33.135483 
	C217.064468,39.507374 221.617996,45.552635 226.758759,52.881313 
	C226.758759,44.334385 226.758759,37.263203 226.758759,28.657042 
	C229.576599,29.647161 231.677063,30.385210 233.784058,31.571115 
z"/>
<path fill="#F4F4F4" opacity="1.000000" stroke="none" 
	d="
M251.104065,48.752361 
	C251.374664,33.625584 259.948730,27.658207 278.132874,29.757908 
	C278.132874,34.288223 278.132874,38.860626 278.132874,43.686985 
	C276.118195,43.686985 274.190094,43.686985 271.825836,43.686985 
	C271.679321,41.297127 271.532288,38.898716 271.388092,36.546638 
	C263.522400,35.519917 258.658264,39.177414 258.109253,46.330879 
	C257.412567,55.407841 261.376495,57.948929 278.060822,58.896652 
	C278.060822,60.729744 278.060822,62.603977 278.060822,64.521812 
	C263.284393,67.683716 253.412857,62.084232 251.104065,48.752361 
z"/>
<path fill="#F3F3F3" opacity="1.000000" stroke="none" 
	d="
M251.005981,87.724838 
	C251.765472,87.235504 252.973602,86.907829 253.216980,86.232498 
	C256.683807,76.612129 260.992798,73.305092 271.107361,72.845749 
	C273.760193,72.725273 276.422241,72.808754 279.552795,73.365585 
	C279.997742,78.276894 279.969910,82.621185 279.942078,86.965485 
	C277.975250,86.965485 276.008423,86.965485 273.736298,86.965485 
	C273.523224,84.456139 273.319641,82.058945 273.119812,79.705673 
	C265.250671,79.009949 260.602570,82.462158 260.032990,89.224724 
	C259.248749,98.536713 262.874023,100.942566 279.881561,102.216087 
	C279.881561,104.082802 279.881561,105.980888 279.881561,109.331619 
	C273.826996,108.275833 267.835297,107.656487 262.099396,106.096512 
	C257.488800,104.842583 254.987198,100.966415 253.658234,96.375984 
	C253.340500,95.278488 252.364288,94.371635 251.338318,93.054718 
	C250.992462,91.063179 250.999222,89.394005 251.005981,87.724838 
z"/>
<path fill="#F2F2F2" opacity="1.000000" stroke="none" 
	d="
M115.023232,50.307953 
	C110.551003,50.307953 106.078773,50.307953 101.366531,50.307953 
	C101.366531,53.277725 101.366531,55.686874 101.366531,58.551853 
	C104.631866,58.551853 107.722168,58.551853 111.044502,58.551853 
	C111.044502,60.905994 111.044502,62.809845 111.044502,64.939209 
	C105.500404,64.939209 100.102119,64.939209 94.462479,64.939209 
	C94.462479,53.127525 94.462479,41.558411 94.462479,29.667181 
	C99.902405,29.667181 105.170746,29.667181 110.865448,29.667181 
	C110.865448,31.486490 110.865448,33.513840 110.865448,35.968597 
	C107.775307,35.968597 104.693695,35.968597 101.371216,35.968597 
	C101.371216,38.656551 101.371216,40.932236 101.371216,44.003986 
	C105.488503,44.003986 109.736862,44.003986 114.550751,44.484818 
	C115.085251,46.746414 115.054245,48.527184 115.023232,50.307953 
z"/>
<path fill="#F8F8F8" opacity="1.000000" stroke="none" 
	d="
M250.585419,87.509857 
	C250.999222,89.394005 250.992462,91.063179 250.992386,93.091064 
	C246.568893,93.667610 242.138733,93.885437 237.482178,94.114388 
	C237.482178,96.608376 237.482178,98.878815 237.482178,101.619186 
	C240.662369,101.778267 243.889587,101.939697 247.115356,102.101059 
	C247.115356,104.290764 247.115356,106.211662 247.115356,108.332314 
	C241.573166,108.332314 236.299530,108.332314 230.339508,108.332314 
	C230.339508,98.744728 230.339508,89.328293 230.580475,79.148849 
	C230.885757,76.596077 230.950089,74.806320 231.014420,73.016563 
	C236.298889,73.016563 241.583359,73.016563 247.127075,73.016563 
	C247.127075,74.978004 247.127075,76.888672 247.127075,79.259361 
	C243.858719,79.259361 240.784790,79.259361 237.482574,79.259361 
	C237.482574,81.966385 237.482574,84.218536 237.482574,87.294884 
	C241.705261,87.294884 245.935059,87.294884 250.585419,87.509857 
z"/>
<path fill="#F1F1F1" opacity="1.000000" stroke="none" 
	d="
M300.720581,101.950134 
	C296.598846,101.919281 292.946350,101.919281 288.915192,101.919281 
	C288.738464,104.007935 288.577820,105.906776 288.385040,108.185493 
	C286.410675,108.185493 284.505280,108.185493 282.186707,108.185493 
	C282.186707,104.155273 282.186707,99.916245 282.186707,95.153297 
	C288.482086,95.153297 295.052612,95.153297 302.008484,95.153297 
	C302.008484,87.562027 302.008484,80.472481 302.008484,73.081482 
	C304.451202,73.081482 306.500427,73.081482 308.788513,73.081482 
	C308.788513,84.807419 308.788513,96.389854 308.788513,108.265846 
	C306.557770,108.265846 304.492615,108.265846 302.588776,108.265846 
	C302.073700,105.951942 301.631744,103.966469 300.720581,101.950134 
z"/>
<path fill="#4D6AEF" opacity="1.000000" stroke="none" 
	d="
M162.805847,95.901093 
	C161.791901,98.778595 160.602905,101.226883 160.086411,103.809647 
	C159.116211,108.661118 156.252090,109.394203 151.381973,108.018410 
	C155.903198,96.304459 160.351761,84.778748 165.373199,71.768829 
	C170.412552,84.668030 174.928177,96.226654 179.504105,107.939606 
	C174.614487,109.608429 171.964417,108.562569 170.714951,103.648094 
	C169.535461,99.008881 167.555496,94.573181 165.456802,88.739067 
	C164.336639,91.755920 163.635498,93.644257 162.805847,95.901093 
z"/>
<path fill="#F2F2F2" opacity="1.000000" stroke="none" 
	d="
M189.077545,47.788818 
	C188.243759,47.948162 187.151245,48.362259 186.875946,49.086864 
	C184.875488,54.352013 183.039658,59.679729 181.155243,64.977951 
	C178.750870,64.977951 176.624466,64.977951 174.033768,64.977951 
	C178.631638,53.101124 183.100266,41.558117 188.137817,28.545509 
	C193.170395,41.436302 197.688034,53.008114 202.214600,64.602806 
	C197.239792,66.306229 194.497437,65.024086 193.315796,59.936291 
	C192.382523,55.917866 190.601624,52.096310 189.077545,47.788818 
z"/>
<path fill="#F2F2F2" opacity="1.000000" stroke="none" 
	d="
M300.530060,63.772896 
	C298.374268,57.818348 296.405090,52.230247 293.925934,45.194935 
	C291.928375,50.886230 290.390350,55.249447 288.865540,59.617279 
	C286.841034,65.416367 286.845459,65.417915 279.863678,64.826340 
	C284.400604,53.073414 288.869659,41.496311 293.877167,28.524292 
	C298.902344,41.398525 303.435455,53.012039 308.376404,65.670410 
	C305.270660,65.049614 302.993683,64.594482 300.530060,63.772896 
z"/>
<path fill="#EEEEEE" opacity="1.000000" stroke="none" 
	d="
M244.578949,29.359852 
	C245.429413,30.817688 246.214600,32.251045 246.236084,33.695759 
	C246.357086,41.835098 246.294479,49.977173 246.294479,58.438019 
	C250.544571,58.781986 251.187714,61.277935 249.847702,64.944855 
	C245.165741,64.944855 240.425949,64.944855 235.450119,64.944855 
	C235.450119,63.107658 235.450119,61.505428 235.450119,59.623955 
	C236.543671,59.319157 237.749054,58.983189 239.205963,58.577114 
	C239.205963,49.115749 239.205963,39.680401 239.205963,29.653292 
	C241.017731,29.538965 242.589371,29.439793 244.578949,29.359852 
z"/>
<path fill="#4D6AED" opacity="1.000000" stroke="none" 
	d="
M191.848206,74.330002 
	C191.902176,82.127563 191.855438,89.456047 191.944885,96.782860 
	C191.974060,99.172775 190.768478,102.241096 195.059967,102.804749 
	C195.651642,102.882469 195.820908,106.176140 196.262589,108.361214 
	C190.894012,108.361214 186.284790,108.361214 181.272247,108.361214 
	C180.667023,105.198952 179.607758,102.086952 185.003235,101.861526 
	C185.003235,92.197708 185.003235,82.761124 185.003235,72.424194 
	C187.624664,72.978027 189.712555,73.419144 191.848206,74.330002 
z"/>
<path fill="#F1F1F1" opacity="1.000000" stroke="none" 
	d="
M215.245819,107.307968 
	C215.170181,99.973930 215.170181,93.074654 215.170181,85.933823 
	C217.498779,85.933823 219.429993,85.933823 221.712082,85.933823 
	C221.712082,93.223709 221.712082,100.559868 221.712082,108.698296 
	C219.599564,108.382416 217.460495,108.062569 215.245819,107.307968 
z"/>
<path fill="#E9E9E9" opacity="1.000000" stroke="none" 
	d="
M143.400940,43.733677 
	C142.993423,39.345608 143.000473,35.035023 143.012299,30.246687 
	C145.900589,29.615728 148.784073,29.462524 151.966431,29.293444 
	C151.966431,34.670620 151.966431,39.672546 151.966431,45.437939 
	C149.057053,44.857281 146.436279,44.334225 143.400940,43.733677 
z"/>
<path fill="#F5F5F5" opacity="1.000000" stroke="none" 
	d="
M228.805542,78.700531 
	C222.017426,78.700531 215.229309,78.700531 208.175171,78.700531 
	C208.175171,76.761414 208.175171,75.023422 208.175171,72.809250 
	C214.823212,72.809250 221.435318,72.809250 228.490692,73.339172 
	C228.891159,75.479576 228.848343,77.090050 228.805542,78.700531 
z"/>
<path fill="#EEEEEE" opacity="1.000000" stroke="none" 
	d="
M282.000122,73.000076 
	C284.086670,73.000076 286.173248,73.000076 288.443665,73.000076 
	C288.443665,78.004807 288.443665,82.737526 288.443665,88.194817 
	C286.320862,88.051453 284.153961,87.905113 281.954651,86.968353 
	C281.948181,81.785316 281.974152,77.392700 282.000122,73.000076 
z"/>
<path fill="#3E3E3E" opacity="1.000000" stroke="none" 
	d="
M281.665405,72.983788 
	C281.974152,77.392700 281.948181,81.785316 281.808350,86.636482 
	C281.305054,87.075165 280.915680,87.055305 280.234192,87.000458 
	C279.969910,82.621185 279.997742,78.276894 280.008423,73.468765 
	C280.437775,72.992462 280.884247,72.979980 281.665405,72.983788 
z"/>
<path fill="#676767" opacity="1.000000" stroke="none" 
	d="
M115.216797,50.481133 
	C115.054245,48.527184 115.085251,46.746414 115.007812,44.530998 
	C115.337601,44.063126 115.775841,44.029900 116.544365,43.957497 
	C116.938263,46.004860 117.001877,48.091396 116.987381,50.619339 
	C116.409630,50.925266 115.909996,50.789787 115.216797,50.481133 
z"/>
<path fill="#848484" opacity="1.000000" stroke="none" 
	d="
M229.199249,78.727707 
	C228.848343,77.090050 228.891159,75.479576 228.940887,73.465546 
	C229.407440,73.019707 229.867065,72.977417 230.670563,72.975845 
	C230.950089,74.806320 230.885757,76.596077 230.586700,78.678703 
	C230.098969,78.899345 229.845978,78.827110 229.199249,78.727707 
z"/>
</svg>